<svg width="170" height="43" viewBox="0 0 170 43" fill="none" xmlns="http://www.w3.org/2000/svg">
<path d="M48.5273 22.9197V19.1368C48.5273 14.6493 51.4073 11.7473 55.7362 11.7473C57.5542 11.7473 59.0302 12.2757 60.0562 13.2678V6.51802C60.0562 5.46105 60.7042 4.78421 61.7392 4.78421H62.4951C63.5211 4.78421 64.1781 5.45177 64.1781 6.51802V25.2098L65.7171 26.7952C66.3651 27.4628 66.4371 28.3158 65.7891 28.9834L65.1051 29.688C64.4571 30.3556 63.6291 30.2907 62.9811 29.6138L61.2352 27.8151C60.1732 29.4377 58.3552 30.2907 55.8802 30.2907C51.4523 30.2907 48.5363 27.3886 48.5363 22.9011L48.5273 22.9197ZM60.0472 23.3091V18.7474C60.0472 16.4109 58.7782 15.1036 56.3752 15.1036C53.9723 15.1036 52.7033 16.4109 52.7033 18.7474V23.3091C52.7033 25.6456 53.9723 26.9529 56.3752 26.9529C58.7782 26.9529 60.0472 25.6456 60.0472 23.3091Z" fill="#EE4266"/>
<path d="M68.7321 23.4853V18.7845C68.7321 14.2228 71.4051 11.7565 76.382 11.7565C81.359 11.7565 83.8969 14.0559 83.8969 18.5063V21.0468C83.8969 22.0389 83.4469 22.5303 82.493 22.5303H72.8181V23.9118C72.8181 26.137 73.9881 27.0919 76.697 27.0919C78.722 27.0919 79.748 26.4893 79.748 25.2932V25.182C79.748 24.7926 79.883 24.6535 80.297 24.6535H83.1049C83.4469 24.6535 83.6539 24.8667 83.6539 25.2191V25.3581C83.6539 28.6496 81.287 30.3092 76.652 30.3092C71.4321 30.3092 68.7231 27.9728 68.7231 23.4853H68.7321ZM72.8181 18.0799V19.3872H79.955V18.0799C79.955 15.9937 78.686 14.8997 76.355 14.8997C74.0241 14.8997 72.8181 15.9937 72.8181 18.0799Z" fill="#EE4266"/>
<path d="M92.5815 28.6867V16.8467L91.0425 15.2612C90.3945 14.5937 90.3225 13.7407 90.9705 13.0731L91.6545 12.3685C92.3025 11.7009 93.1305 11.7658 93.7785 12.4426L95.7315 14.4546C96.5865 12.897 97.9274 12.0161 99.6464 12.0161H100.06C101.635 12.0161 102.463 12.6837 102.463 13.9261V14.2784C102.463 15.3725 101.707 16.0493 100.546 16.0493H100.069C97.8374 16.0493 96.7034 17.2825 96.7034 19.758V28.6959C96.7034 29.4377 96.2265 29.9291 95.4975 29.9291H93.7875C93.0675 29.9291 92.5815 29.4377 92.5815 28.6959V28.6867Z" fill="#EE4266"/>
<path d="M103.939 23.068V19.007C103.939 14.3433 106.783 11.7658 111.868 11.7658C116.953 11.7658 119.824 14.3433 119.824 19.007V23.068C119.824 27.7317 116.98 30.3092 111.904 30.3092C106.828 30.3092 103.948 27.7317 103.948 23.068H103.939ZM115.639 23.4852V18.5712C115.639 16.3089 114.334 15.1036 111.868 15.1036C109.402 15.1036 108.124 16.3089 108.124 18.5712V23.4852C108.124 25.7475 109.429 26.9529 111.895 26.9529C114.361 26.9529 115.63 25.7475 115.63 23.4852H115.639Z" fill="#EE4266"/>
<path d="M124.387 28.6867V16.8467L122.848 15.2612C122.2 14.5937 122.128 13.7407 122.776 13.0731L123.46 12.3685C124.108 11.7009 124.936 11.7658 125.584 12.4426L127.267 14.2414C128.266 12.6188 129.976 11.7658 132.208 11.7658C134.674 11.7658 136.663 12.6837 137.833 14.3804C138.859 12.6837 140.614 11.7658 142.945 11.7658C147.094 11.7658 149.839 14.2784 149.839 18.7659V28.6959C149.839 29.4377 149.362 29.9291 148.642 29.9291H146.923C146.203 29.9291 145.726 29.4377 145.726 28.6959V18.7659C145.726 16.4666 144.592 15.2334 142.468 15.2334C140.344 15.2334 139.174 16.4387 139.174 18.7659V28.6959C139.174 29.4377 138.697 29.9291 137.977 29.9291H136.258C135.538 29.9291 135.061 29.4377 135.061 28.6959V18.7659C135.061 16.4666 133.927 15.2334 131.803 15.2334C129.679 15.2334 128.509 16.4387 128.509 18.7659V28.6959C128.509 29.4377 128.032 29.9291 127.303 29.9291H125.593C124.873 29.9291 124.387 29.4377 124.387 28.6959V28.6867Z" fill="#EE4266"/>
<path d="M153.25 25.0429V24.7555C153.25 21.1117 155.482 19.415 160.216 19.415C161.413 19.415 162.655 19.554 163.852 19.8415V17.2639C163.852 15.7434 162.889 15.0387 160.801 15.0387C158.713 15.0387 157.885 15.5672 157.885 16.8374V17.0136C157.885 17.505 157.642 17.7553 157.165 17.7553H154.699C154.222 17.7553 153.943 17.4679 153.943 16.9765V16.8003C153.943 13.5831 156.409 11.7473 160.765 11.7473C165.499 11.7473 167.938 13.6943 167.938 17.5421V25.2098L169.477 26.7952C170.125 27.4628 170.197 28.3158 169.549 28.9834L168.865 29.688C168.217 30.3556 167.389 30.2907 166.741 29.6138L165.022 27.8522C163.888 29.3728 162.007 30.2907 159.739 30.2907C155.653 30.2907 153.259 28.3436 153.259 25.0244L153.25 25.0429ZM160.414 27.0919C162.403 27.0919 163.843 25.9237 163.843 24.3012V22.6786C162.745 22.3634 161.683 22.215 160.549 22.215C158.353 22.215 157.255 22.9938 157.255 24.5515V24.8296C157.255 26.3502 158.317 27.0919 160.414 27.0919Z" fill="#EE4266"/>
<path d="M37.3945 0H4.14894C1.85397 0 0 1.90997 0 4.27426V38.5239C0 40.8882 1.85397 42.7982 4.14894 42.7982H37.3945C39.6894 42.7982 41.5434 40.8882 41.5434 38.5239V4.27426C41.5434 1.90997 39.6894 0 37.3945 0ZM31.0046 30.4205C32.3905 31.3198 32.8495 32.9887 31.8685 34.5278C30.9416 36.0113 29.3306 36.3729 27.8816 35.4179L11.5828 24.8204C9.96286 23.8097 9.15287 22.9197 9.15287 21.4269V21.3713C9.15287 19.8229 9.96286 18.9885 11.5828 17.9778L27.8816 7.38955C29.3216 6.43456 30.9416 6.79616 31.8685 8.27964C32.8495 9.82801 32.3905 11.4969 31.0046 12.387L16.7308 21.3806L31.0046 30.4205Z" fill="#EE4266"/>
<path d="M47.9966 40.0818V39.748C47.9966 39.5996 48.0686 39.5255 48.2036 39.5255H48.6896C48.8066 39.5255 48.8876 39.5996 48.8876 39.7387V40.0725C48.8876 40.9811 49.4276 41.3613 50.5795 41.3613C51.7315 41.3613 52.2715 40.9626 52.2715 40.0169V39.7943C52.2715 38.9692 51.8935 38.793 51.1825 38.6632L49.8146 38.4036C48.6806 38.1903 48.0686 37.8287 48.0686 36.4843V36.2525C48.0686 34.8432 48.9506 34.0922 50.5975 34.0922C52.2445 34.0922 53.0995 34.7413 53.0995 36.1135V36.3824C53.0995 36.5122 53.0365 36.6049 52.9015 36.6049H52.4155C52.2895 36.6049 52.2085 36.5122 52.2085 36.3824V36.1135C52.2085 35.2234 51.7045 34.8432 50.5885 34.8432C49.4726 34.8432 48.9776 35.2327 48.9776 36.1784V36.4009C48.9776 37.2168 49.3466 37.393 50.0486 37.5228L51.4345 37.7824C52.5595 37.9956 53.1805 38.3758 53.1805 39.7202V39.952C53.1805 41.3798 52.2625 42.1215 50.5795 42.1215C48.8966 42.1215 47.9966 41.4725 47.9966 40.091V40.0818Z" fill="white"/>
<path d="M54.0981 41.7412C54.0981 41.6856 54.1161 41.6114 54.1611 41.4724L56.3301 34.6113C56.4381 34.2775 56.5641 34.1662 56.8521 34.1662H57.3471C57.6261 34.1662 57.7611 34.2775 57.8691 34.6113L60.0381 41.4724C60.0831 41.6022 60.1011 41.6856 60.1011 41.7412C60.1011 41.8989 60.0021 42.0008 59.8131 42.0008H59.5251C59.3091 42.0008 59.2461 41.9359 59.1651 41.6856L58.5261 39.5995H55.6551L55.0161 41.6856C54.9441 41.9267 54.8631 42.0008 54.6471 42.0008H54.3861C54.1881 42.0008 54.0981 41.8989 54.0981 41.7412ZM58.2741 38.7928L57.0861 34.9265L55.8981 38.7928H58.2741Z" fill="white"/>
<path d="M61.4243 41.5466V34.4816C61.4243 34.3147 61.5323 34.2034 61.6943 34.2034H62.0723C62.2343 34.2034 62.3423 34.3147 62.3423 34.4816V41.1943H65.6003C65.7623 41.1943 65.8613 41.2963 65.8613 41.4632V41.7228C65.8613 41.8897 65.7623 41.9917 65.6003 41.9917H61.8563C61.5863 41.9917 61.4243 41.8248 61.4243 41.5466Z" fill="white"/>
<path d="M67.8863 41.593L65.7173 34.7226C65.6723 34.6021 65.6543 34.5187 65.6543 34.463C65.6543 34.3054 65.7533 34.2034 65.9423 34.2034H66.2303C66.4463 34.2034 66.5183 34.2683 66.5993 34.5187L68.6243 41.1572L70.6672 34.5187C70.7392 34.2776 70.8112 34.2034 71.0272 34.2034H71.2972C71.4952 34.2034 71.5762 34.3054 71.5762 34.463C71.5762 34.5187 71.5672 34.5928 71.5222 34.7226L69.3532 41.593C69.2452 41.9267 69.1193 42.038 68.8223 42.038H68.3993C68.1203 42.038 67.9853 41.9267 67.8773 41.593H67.8863Z" fill="white"/>
<path d="M71.8191 41.7412C71.8191 41.6856 71.8371 41.6114 71.8821 41.4724L74.0511 34.6113C74.1591 34.2775 74.2851 34.1662 74.5731 34.1662H75.068C75.347 34.1662 75.482 34.2775 75.59 34.6113L77.759 41.4724C77.804 41.6022 77.822 41.6856 77.822 41.7412C77.822 41.8989 77.723 42.0008 77.534 42.0008H77.246C77.03 42.0008 76.967 41.9359 76.886 41.6856L76.247 39.5995H73.3761L72.7371 41.6856C72.6651 41.9267 72.5841 42.0008 72.3681 42.0008H72.1071C71.9091 42.0008 71.8191 41.8989 71.8191 41.7412ZM75.995 38.7928L74.807 34.9265L73.6191 38.7928H75.995Z" fill="white"/>
<path d="M80.009 41.7135V35.0008H77.903C77.7321 35.0008 77.6331 34.8988 77.6331 34.7319V34.4723C77.6331 34.3054 77.7321 34.2034 77.903 34.2034H83.042C83.213 34.2034 83.303 34.3054 83.303 34.4723V34.7319C83.303 34.8988 83.213 35.0008 83.042 35.0008H80.927V41.7135C80.927 41.8804 80.819 41.9917 80.657 41.9917H80.279C80.117 41.9917 80.009 41.8804 80.009 41.7135Z" fill="white"/>
<path d="M89.594 36.7438V39.4604C89.594 41.1756 88.55 42.1214 86.786 42.1214C85.022 42.1214 83.978 41.1756 83.978 39.4604V36.7438C83.978 35.0285 85.022 34.0828 86.786 34.0828C88.55 34.0828 89.594 35.0285 89.594 36.7438ZM86.786 41.3518C87.983 41.3518 88.649 40.7028 88.649 39.516V36.6881C88.649 35.5014 88.001 34.8523 86.786 34.8523C85.571 34.8523 84.905 35.5014 84.905 36.6881V39.516C84.905 40.7028 85.562 41.3518 86.786 41.3518Z" fill="white"/>
<path d="M95.5969 41.8618L93.365 38.9227C93.239 38.7466 93.167 38.6353 93.167 38.4869V38.4684C93.167 38.2366 93.32 38.0975 93.545 38.0975H94.04C95.03 38.0975 95.543 37.6525 95.543 36.7717V36.3174C95.543 35.4273 95.039 34.9822 94.04 34.9822H92.303V41.7135C92.303 41.8804 92.195 41.9917 92.033 41.9917H91.655C91.493 41.9917 91.385 41.8804 91.385 41.7135V34.7041C91.385 34.3888 91.565 34.2034 91.871 34.2034H94.04C95.6239 34.2034 96.4699 34.9452 96.4699 36.3452V36.7531C96.4699 38.0326 95.7589 38.728 94.409 38.8207L96.3439 41.287C96.5239 41.5188 96.4699 41.7877 96.2539 41.9546C96.0469 42.1122 95.7679 42.0658 95.5969 41.8433V41.8618Z" fill="white"/>
<path d="M98.0266 41.5466V34.6485C98.0266 34.3703 98.1886 34.2034 98.4586 34.2034H102.401C102.563 34.2034 102.662 34.3054 102.662 34.4723V34.7319C102.662 34.8988 102.563 35.0008 102.401 35.0008H98.9446V37.6339H101.78C102.005 37.6339 102.167 37.7823 102.167 38.0048V38.0512C102.167 38.283 102.005 38.4313 101.78 38.4313H98.9446V41.2128H102.401C102.563 41.2128 102.662 41.3148 102.662 41.4817V41.7413C102.662 41.9082 102.563 42.0102 102.401 42.0102H98.4586C98.1886 42.0102 98.0266 41.8433 98.0266 41.5652V41.5466Z" fill="white"/>
</svg>
