<svg width="40" height="40" viewBox="0 0 40 40" fill="none" xmlns="http://www.w3.org/2000/svg">
<path d="M36.0052 0H3.9948C1.7851 0 0 1.7851 0 3.9948V36.0052C0 38.2149 1.7851 40 3.9948 40H36.0052C38.2149 40 40 38.2149 40 36.0052V3.9948C40 1.7851 38.2149 0 36.0052 0ZM29.8527 28.4315C31.1872 29.2721 31.6291 30.8319 30.6846 32.2704C29.792 33.6568 28.2409 33.9948 26.8458 33.1023L11.1525 23.1976C9.59272 22.253 8.81282 21.4211 8.81282 20.026V19.974C8.81282 18.5269 9.59272 17.747 11.1525 16.8024L26.8458 6.90641C28.2322 6.01386 29.792 6.35182 30.6846 7.7383C31.6291 9.18544 31.1872 10.7452 29.8527 11.5771L16.1092 19.9827L29.8527 28.4315Z" fill="#EF476F"/>
</svg>
